<svg xmlns="http://www.w3.org/2000/svg" viewBox="0 0 2810.77 512"><defs><style>.cls-1{fill:#5f6368;}.cls-2{fill:#4285f4;}.cls-3{fill:#ea4335;}.cls-4{fill:#fbbc04;}.cls-5{fill:#34a853;}</style></defs><title>lockup_Google_Maps</title><g id="Product_name" data-name="Product name"><path class="cls-1" d="M1724.92,389.45v-350h45L1891.6,252.58h2L2015.28,39.45h45v350h-45V181.7l2-58.66h-2l-109.5,192.11h-26.4L1769.89,123h-2l2,58.66V389.45Z" transform="translate(0)"/><path class="cls-1" d="M2191.78,397.27q-38.13,0-63.79-22t-25.66-58.17q0-39.09,30.3-61.34t74.79-22.24q39.6,0,65,14.66v-6.84q0-26.4-18.09-42.29t-44.48-15.88a69,69,0,0,0-35.44,9.28q-15.9,9.3-21.75,25.42l-41.06-17.6q8.3-21.5,32.75-39.83t64.52-18.33q45.95,0,76.26,26.88t30.3,75.77V389.45h-43V356.21h-2Q2243.6,397.27,2191.78,397.27Zm7.33-41.06q27.87,0,50.6-20.78t22.73-49.12q-19.07-15.65-57.19-15.64-32.76,0-49.38,14.17t-16.62,33.24q0,17.6,15.16,27.86T2199.11,356.21Z" transform="translate(0)"/><path class="cls-1" d="M2484,397.27q-27.39,0-49.13-11.73t-32.51-29.33h-2l2,33.24V495h-45V149.93h43v33.24h2q10.76-17.59,32.51-29.33T2484,142.11q46.42,0,80.16,36.66t33.73,90.92q0,54.26-33.73,90.92T2484,397.27Zm-7.34-41.06q31.28,0,53.77-23.71t22.49-62.81q0-39.1-22.49-62.82t-53.77-23.7q-31.77,0-54,23.46t-22.24,63.06q0,39.58,22.24,63.06T2476.66,356.21Z" transform="translate(0)"/><path class="cls-1" d="M2716.42,397.27q-40.08,0-66.23-19.55a115.58,115.58,0,0,1-38.37-48.89l40.08-16.61q19.07,45,65,45,21,0,34.47-9.29t13.44-24.44q0-23.46-32.75-31.77L2683.67,280q-23-5.86-43.5-22.24t-20.53-44.24q0-31.77,28.11-51.57t66.72-19.79q31.77,0,56.7,14.42a81.28,81.28,0,0,1,35.69,41.3L2767.75,214q-13.2-31.77-54.75-31.77-20,0-33.72,8.31T2665.59,213q0,20.53,31.77,27.87l47.42,11.24q33.72,7.83,49.86,26.89t16.13,43q0,32.26-26.4,53.77T2716.42,397.27Z" transform="translate(0)"/></g><g id="Google_logo" data-name="Google logo"><g id="_1570x512px" data-name="1570x512px"><path class="cls-2" d="M202.4,235.58V181.32H384a178.07,178.07,0,0,1,2.94,33.27c0,40.68-11.14,91.06-47,126.9-34.86,36.33-79.42,55.71-138.5,55.71C92,397.2,0,308.07,0,198.6S92,0,201.45,0C262,0,305.09,23.74,337.53,54.74L299.27,93C276,71.21,244.55,54.25,201.45,54.25c-79.9,0-142.37,64.42-142.37,144.35S121.55,343,201.45,343c51.82,0,81.36-20.83,100.24-39.72,15.39-15.39,25.53-37.47,29.46-67.65Z" transform="translate(0)"/><path class="cls-3" d="M663.64,269.32C663.64,343,606,397.2,535.32,397.2S407,343,407,269.32c0-74.11,57.63-127.88,128.34-127.88S663.64,195.21,663.64,269.32Zm-56.17,0c0-46-33.41-77.5-72.15-77.5s-72.16,31.48-72.16,77.5c0,45.53,33.41,77.5,72.16,77.5S607.47,314.85,607.47,269.32Z" transform="translate(0)"/><path class="cls-4" d="M943.59,269.32C943.59,343,886,397.2,815.27,397.2S686.94,343,686.94,269.32c0-74.11,57.62-127.88,128.33-127.88S943.59,195.21,943.59,269.32Zm-56.17,0c0-46-33.41-77.5-72.15-77.5s-72.16,31.48-72.16,77.5c0,45.53,33.41,77.5,72.16,77.5S887.42,314.85,887.42,269.32Z" transform="translate(0)"/><path class="cls-2" d="M1211.93,149.19v229.6c0,94.46-55.69,133.21-121.55,133.21-62,0-99.28-41.66-113.32-75.56L1026,416.09c8.71,20.83,30,45.53,64.41,45.53,42.13,0,68.28-26.16,68.28-75.08v-18.4h-1.94c-12.59,15.5-36.8,29.06-67.31,29.06-63.93,0-122.52-55.71-122.52-127.39,0-72.18,58.59-128.37,122.52-128.37,30.51,0,54.72,13.56,67.31,28.58h1.94V149.19Zm-49.4,120.62c0-45.05-30-78-68.28-78-38.74,0-71.19,32.94-71.19,78,0,44.56,32.45,77,71.19,77C1132.51,346.82,1162.53,314.37,1162.53,269.81Z" transform="translate(0)"/><path class="cls-5" d="M1307.07,14.82V389.45H1250.9V14.82Z" transform="translate(0)"/><path class="cls-3" d="M1524,311.46l43.58,29.07c-14,20.82-47.94,56.67-106.54,56.67-72.64,0-126.88-56.19-126.88-127.88,0-76,54.73-127.88,120.58-127.88,66.35,0,98.79,52.8,109.45,81.38l5.81,14.53-171,70.72c13.08,25.67,33.42,38.75,62,38.75S1509.47,332.78,1524,311.46Zm-134.15-46L1504.14,218c-6.3-16-25.18-27.12-47.46-27.12C1428.11,190.85,1388.4,216,1389.85,265.45Z" transform="translate(0)"/></g></g></svg>